<svg width="71" height="71" viewBox="0 0 71 71" fill="none" xmlns="http://www.w3.org/2000/svg">
<circle cx="35.06" cy="35.06" r="35.06" fill="white"/>
<path fill-rule="evenodd" clip-rule="evenodd" d="M29.6048 42.3266C36.9376 42.3266 42.882 36.3822 42.882 29.0494C42.882 21.7166 36.9376 15.7722 29.6048 15.7722C22.2721 15.7722 16.3277 21.7166 16.3277 29.0494C16.3277 36.3822 22.2721 42.3266 29.6048 42.3266ZM29.6048 46.1271C32.9462 46.1271 36.0634 45.1675 38.696 43.5089L52.6343 57.4472C53.5619 58.3748 55.0659 58.3748 55.9936 57.4472L56.8687 56.572C57.7963 55.6444 57.7963 54.1404 56.8687 53.2128L43.1315 39.4756C45.358 36.5912 46.6826 32.975 46.6826 29.0494C46.6826 19.6176 39.0366 11.9717 29.6048 11.9717C20.1731 11.9717 12.5271 19.6176 12.5271 29.0494C12.5271 38.4812 20.1731 46.1271 29.6048 46.1271ZM25.0088 32.7311L25.6843 32.9859L26.1107 32.4033L29.8166 27.3406L32.8054 34.3132L33.3433 35.5682L34.3331 34.6276L40.1048 29.1436C40.0542 34.8995 35.3725 39.5499 29.6046 39.5499C24.3128 39.5499 19.9353 35.6355 19.2096 30.5443L25.0088 32.7311ZM29.6046 18.5488C34.6175 18.5488 38.81 22.0615 39.8548 26.7598L34.014 32.3096L30.907 25.0611L30.2508 23.5302L29.267 24.8742L25.0038 30.6984L19.1193 28.4793C19.4153 22.9451 23.9966 18.5488 29.6046 18.5488ZM42.0054 29.0494C42.0054 35.8982 36.4534 41.4502 29.6046 41.4502C22.7558 41.4502 17.2038 35.8982 17.2038 29.0494C17.2038 22.2006 22.7558 16.6485 29.6046 16.6485C36.4534 16.6485 42.0054 22.2006 42.0054 29.0494Z" fill="url(#paint0_linear_301_287)"/>
<path fill-rule="evenodd" clip-rule="evenodd" d="M29.6048 42.3266C36.9376 42.3266 42.882 36.3822 42.882 29.0494C42.882 21.7166 36.9376 15.7722 29.6048 15.7722C22.2721 15.7722 16.3277 21.7166 16.3277 29.0494C16.3277 36.3822 22.2721 42.3266 29.6048 42.3266ZM29.6048 46.1271C32.9462 46.1271 36.0634 45.1675 38.696 43.5089L52.6343 57.4472C53.5619 58.3748 55.0659 58.3748 55.9936 57.4472L56.8687 56.572C57.7963 55.6444 57.7963 54.1404 56.8687 53.2128L43.1315 39.4756C45.358 36.5912 46.6826 32.975 46.6826 29.0494C46.6826 19.6176 39.0366 11.9717 29.6048 11.9717C20.1731 11.9717 12.5271 19.6176 12.5271 29.0494C12.5271 38.4812 20.1731 46.1271 29.6048 46.1271ZM25.0088 32.7311L25.6843 32.9859L26.1107 32.4033L29.8166 27.3406L32.8054 34.3132L33.3433 35.5682L34.3331 34.6276L40.1048 29.1436C40.0542 34.8995 35.3725 39.5499 29.6046 39.5499C24.3128 39.5499 19.9353 35.6355 19.2096 30.5443L25.0088 32.7311ZM29.6046 18.5488C34.6175 18.5488 38.81 22.0615 39.8548 26.7598L34.014 32.3096L30.907 25.0611L30.2508 23.5302L29.267 24.8742L25.0038 30.6984L19.1193 28.4793C19.4153 22.9451 23.9966 18.5488 29.6046 18.5488ZM42.0054 29.0494C42.0054 35.8982 36.4534 41.4502 29.6046 41.4502C22.7558 41.4502 17.2038 35.8982 17.2038 29.0494C17.2038 22.2006 22.7558 16.6485 29.6046 16.6485C36.4534 16.6485 42.0054 22.2006 42.0054 29.0494Z" fill="url(#paint1_linear_301_287)"/>
<defs>
<linearGradient id="paint0_linear_301_287" x1="12.5271" y1="29.0474" x2="46.6792" y2="29.0474" gradientUnits="userSpaceOnUse">
<stop stop-color="#FFE500"/>
<stop offset="1" stop-color="#FE5D0D"/>
</linearGradient>
<linearGradient id="paint1_linear_301_287" x1="35.0677" y1="9.73845" x2="35.0677" y2="58.968" gradientUnits="userSpaceOnUse">
<stop stop-color="#FA00FF"/>
<stop offset="0.708333" stop-color="#4C0385"/>
</linearGradient>
</defs>
</svg>
